<?xml version="1.0"?>
<svg xmlns="http://www.w3.org/2000/svg" xmlns:xlink="http://www.w3.org/1999/xlink" xmlns:svgjs="http://svgjs.com/svgjs" version="1.1" width="512" height="512" x="0" y="0" viewBox="0 0 512 512" style="enable-background:new 0 0 512 512" xml:space="preserve" class=""><g>
<path xmlns="http://www.w3.org/2000/svg" style="" d="M256,0C177.336,82.664,46.664,64,46.664,64s0,92,0,224S256,512,256,512s209.336-92,209.336-224  s0-224,0-224S334.664,82.664,256,0z" fill="#1a9f15" data-original="#e21b1b" class=""/>
<g xmlns="http://www.w3.org/2000/svg" style="opacity:0.15;">
	<path d="M256,73.688c-56.024,58.872-149.072,45.576-149.072,45.576s0,65.52,0,159.52S256,438.312,256,438.312   s149.08-65.52,149.08-159.52s0-159.52,0-159.52S312.024,132.56,256,73.688z" fill="#000000" data-original="#000000" style="" class=""/>
</g>
<polygon xmlns="http://www.w3.org/2000/svg" style="" points="241.344,337.568 164.032,272.968 184.544,248.408 235.208,290.744 318.208,173.056   344.36,191.488 " fill="#ffffff" data-original="#ffffff" class=""/>
<g xmlns="http://www.w3.org/2000/svg">
</g>
<g xmlns="http://www.w3.org/2000/svg">
</g>
<g xmlns="http://www.w3.org/2000/svg">
</g>
<g xmlns="http://www.w3.org/2000/svg">
</g>
<g xmlns="http://www.w3.org/2000/svg">
</g>
<g xmlns="http://www.w3.org/2000/svg">
</g>
<g xmlns="http://www.w3.org/2000/svg">
</g>
<g xmlns="http://www.w3.org/2000/svg">
</g>
<g xmlns="http://www.w3.org/2000/svg">
</g>
<g xmlns="http://www.w3.org/2000/svg">
</g>
<g xmlns="http://www.w3.org/2000/svg">
</g>
<g xmlns="http://www.w3.org/2000/svg">
</g>
<g xmlns="http://www.w3.org/2000/svg">
</g>
<g xmlns="http://www.w3.org/2000/svg">
</g>
<g xmlns="http://www.w3.org/2000/svg">
</g>
</g></svg>
